#Comment line ignore any data following # character 
#Hierarchical Translation and Rotation (.htr) file 
[Header]	
#Header keywords are followed by a single value 
FileType HTR		#Single word string
DataType HTRS		#Translation followed by rotation and scale data
FileVersion 1		#integer
NumSegments 64		#integer
NumFrames 3		#integer
DataFrameRate 30		#integer, data frame rate in this file
EulerRotationOrder ZYX
CalibrationUnits mm
RotationUnits Degrees
GlobalAxisofGravity Y
BoneLengthAxis Y
ScaleFactor 1.00
[SegmentNames&Hierarchy]
#CHILD	PARENT
Pinger_Root GLOBAL
Pelvis Pinger_Root
L_Hip Pelvis
R_Hip Pelvis
Rear_Leg01 Pelvis
Spine1 Pelvis
L_Leg01 L_Hip
L_Leg02 L_Leg01
L_Leg03 L_Leg02
L_Foot L_Leg03
L_Toe1_01 L_Foot
L_Toe2_01 L_Foot
L_Toe3_01 L_Foot
planeAlignerLeft L_Foot
L_Toe1_02 L_Toe1_01
L_Toe1_03 L_Toe1_02
L_Toe2_02 L_Toe2_01
L_Toe2_03 L_Toe2_02
L_Toe3_02 L_Toe3_01
L_Toe3_03 L_Toe3_02
planeLockWeightLeft planeAlignerLeft
R_Leg01 R_Hip
R_Leg02 R_Leg01
R_Leg03 R_Leg02
R_Foot R_Leg03
planeAlignerRight R_Foot
R_Toe1_01 R_Foot
R_Toe2_01 R_Foot
R_Toe3_01 R_Foot
planeLockWeightRight planeAlignerRight
R_Toe1_02 R_Toe1_01
R_Toe1_03 R_Toe1_02
R_Toe2_02 R_Toe2_01
R_Toe2_03 R_Toe2_02
R_Toe3_02 R_Toe3_01
R_Toe3_03 R_Toe3_02
Rear_Leg02 Rear_Leg01
Rear_Leg03 Rear_Leg02
Rear_Leg04 Rear_Leg03
Rear_Foot Rear_Leg04
planeAlignerCenter Rear_Foot
Rear_Toe1_01 Rear_Foot
Rear_Toe2_01 Rear_Foot
Rear_Toe3_01 Rear_Foot
planeLockWeightCenter planeAlignerCenter
Rear_Toe1_02 Rear_Toe1_01
Rear_Toe1_03 Rear_Toe1_02
Rear_Toe2_02 Rear_Toe2_01
Rear_Toe2_03 Rear_Toe2_02
Rear_Toe3_02 Rear_Toe3_01
Rear_Toe3_03 Rear_Toe3_02
Back_Bone Spine1
Head Spine1
Motor_Bone Back_Bone
Ping_Mechanism Back_Bone
BN_LookIK Head
bottomMouth Head
L_Mouth01 Head
L_mouthFront Head
mouthGun Head
R_Mouth01 Head
R_mouthFront Head
TopMouth Head
weapon_bone Head
[BasePosition]
#SegmentName Tx, Ty, Tz, Rx, Ry, Rz, BoneLength
Pinger_Root 0.000000 0.000000 0.000000 -90.000000 0.000000 0.000000 10.000000 
Pelvis 0.000000 0.000000 0.000000 0.000000 0.000000 0.000000 10.000000 
L_Hip 0.000000 0.000000 0.000000 0.000000 0.000000 0.000000 10.000000 
R_Hip 0.000000 0.000000 0.000000 0.000000 0.000000 0.000000 10.000000 
Rear_Leg01 0.000000 0.000000 0.000000 0.000000 0.000000 0.000000 10.000000 
Spine1 0.000000 0.000000 0.000000 0.000000 0.000000 0.000000 10.000000 
L_Leg01 0.000000 0.000000 0.000000 0.000000 0.000000 0.000000 10.000000 
L_Leg02 0.000000 0.000000 0.000000 0.000000 0.000000 0.000000 10.000000 
L_Leg03 0.000000 0.000000 0.000000 0.000000 0.000000 0.000000 10.000000 
L_Foot 0.000000 0.000000 0.000000 0.000000 0.000000 0.000000 10.000000 
L_Toe1_01 0.000000 0.000000 0.000000 0.000000 0.000000 0.000000 10.000000 
L_Toe2_01 0.000000 0.000000 0.000000 0.000000 0.000000 0.000000 10.000000 
L_Toe3_01 0.000000 0.000000 0.000000 0.000000 0.000000 0.000000 10.000000 
planeAlignerLeft 0.000000 0.000000 0.000000 0.000000 0.000000 0.000000 10.000000 
L_Toe1_02 0.000000 0.000000 0.000000 0.000000 0.000000 0.000000 10.000000 
L_Toe1_03 0.000000 0.000000 0.000000 0.000000 0.000000 0.000000 10.000000 
L_Toe2_02 0.000000 0.000000 0.000000 0.000000 0.000000 0.000000 10.000000 
L_Toe2_03 0.000000 0.000000 0.000000 0.000000 0.000000 0.000000 10.000000 
L_Toe3_02 0.000000 0.000000 0.000000 0.000000 0.000000 0.000000 10.000000 
L_Toe3_03 0.000000 0.000000 0.000000 0.000000 0.000000 0.000000 10.000000 
planeLockWeightLeft 0.000000 0.000000 0.000000 0.000000 0.000000 0.000000 10.000000 
R_Leg01 0.000000 0.000000 0.000000 0.000000 0.000000 0.000000 10.000000 
R_Leg02 0.000000 0.000000 0.000000 0.000000 0.000000 0.000000 10.000000 
R_Leg03 0.000000 0.000000 0.000000 0.000000 0.000000 0.000000 10.000000 
R_Foot 0.000000 0.000000 0.000000 0.000000 0.000000 0.000000 10.000000 
planeAlignerRight 0.000000 0.000000 0.000000 0.000000 0.000000 0.000000 10.000000 
R_Toe1_01 0.000000 0.000000 0.000000 0.000000 0.000000 0.000000 10.000000 
R_Toe2_01 0.000000 0.000000 0.000000 0.000000 0.000000 0.000000 10.000000 
R_Toe3_01 0.000000 0.000000 0.000000 0.000000 0.000000 0.000000 10.000000 
planeLockWeightRight 0.000000 0.000000 0.000000 0.000000 0.000000 0.000000 10.000000 
R_Toe1_02 0.000000 0.000000 0.000000 0.000000 0.000000 0.000000 10.000000 
R_Toe1_03 0.000000 0.000000 0.000000 0.000000 0.000000 0.000000 10.000000 
R_Toe2_02 0.000000 0.000000 0.000000 0.000000 0.000000 0.000000 10.000000 
R_Toe2_03 0.000000 0.000000 0.000000 0.000000 0.000000 0.000000 10.000000 
R_Toe3_02 0.000000 0.000000 0.000000 0.000000 0.000000 0.000000 10.000000 
R_Toe3_03 0.000000 0.000000 0.000000 0.000000 0.000000 0.000000 10.000000 
Rear_Leg02 0.000000 0.000000 0.000000 0.000000 0.000000 0.000000 10.000000 
Rear_Leg03 0.000000 0.000000 0.000000 0.000000 0.000000 0.000000 10.000000 
Rear_Leg04 0.000000 0.000000 0.000000 0.000000 0.000000 0.000000 10.000000 
Rear_Foot 0.000000 0.000000 0.000000 0.000000 0.000000 0.000000 10.000000 
planeAlignerCenter 0.000000 0.000000 0.000000 0.000000 0.000000 0.000000 10.000000 
Rear_Toe1_01 0.000000 0.000000 0.000000 0.000000 0.000000 0.000000 10.000000 
Rear_Toe2_01 0.000000 0.000000 0.000000 0.000000 0.000000 0.000000 10.000000 
Rear_Toe3_01 0.000000 0.000000 0.000000 0.000000 0.000000 0.000000 10.000000 
planeLockWeightCenter 0.000000 0.000000 0.000000 0.000000 0.000000 0.000000 10.000000 
Rear_Toe1_02 0.000000 0.000000 0.000000 0.000000 0.000000 0.000000 10.000000 
Rear_Toe1_03 0.000000 0.000000 0.000000 0.000000 0.000000 0.000000 10.000000 
Rear_Toe2_02 0.000000 0.000000 0.000000 0.000000 0.000000 0.000000 10.000000 
Rear_Toe2_03 0.000000 0.000000 0.000000 0.000000 0.000000 0.000000 10.000000 
Rear_Toe3_02 0.000000 0.000000 0.000000 0.000000 0.000000 0.000000 10.000000 
Rear_Toe3_03 0.000000 0.000000 0.000000 0.000000 0.000000 0.000000 10.000000 
Back_Bone 0.000000 0.000000 0.000000 0.000000 0.000000 0.000000 10.000000 
Head 0.000000 0.000000 0.000000 0.000000 0.000000 0.000000 10.000000 
Motor_Bone 0.000000 0.000000 0.000000 0.000000 0.000000 0.000000 10.000000 
Ping_Mechanism 0.000000 0.000000 0.000000 0.000000 0.000000 0.000000 10.000000 
BN_LookIK 0.000000 0.000000 0.000000 0.000000 0.000000 0.000000 10.000000 
bottomMouth 0.000000 0.000000 0.000000 0.000000 0.000000 0.000000 10.000000 
L_Mouth01 0.000000 0.000000 0.000000 0.000000 0.000000 0.000000 10.000000 
L_mouthFront 0.000000 0.000000 0.000000 0.000000 0.000000 0.000000 10.000000 
mouthGun 0.000000 0.000000 0.000000 0.000000 0.000000 0.000000 10.000000 
R_Mouth01 0.000000 0.000000 0.000000 0.000000 0.000000 0.000000 10.000000 
R_mouthFront 0.000000 0.000000 0.000000 0.000000 0.000000 0.000000 10.000000 
TopMouth 0.000000 0.000000 0.000000 0.000000 0.000000 0.000000 10.000000 
weapon_bone 0.000000 0.000000 0.000000 0.000000 0.000000 0.000000 10.000000 
#Beginning of Data. Separated by tabs
#Fr	Tx	Ty	Tz	Rx	Ry	Rz	SF
[Pinger_Root]
34 0.000000 0.000000 0.000000 -0.000075 -0.000000 -0.000020 0.000000
35 0.000000 0.000000 0.000000 -0.000075 -0.000000 -0.000020 0.000000
36 0.000000 0.000000 0.000000 -0.000075 -0.000000 -0.000020 0.000000
[Pelvis]
34 57.039448 998.466797 4429.691406 -104.253288 -85.018311 96.594955 4541.184082
35 58.391808 962.570374 4445.132813 -101.412987 -85.458000 93.778763 4548.533203
36 60.181061 931.974609 4454.113281 -100.534378 -85.822662 92.911606 4550.969727
[L_Hip]
34 5.766392 125.831482 872.656799 160.158691 -45.484905 122.312202 881.701050
35 5.766392 125.831482 872.656799 160.158691 -45.484905 122.312202 881.701050
36 5.766392 125.831482 872.656799 160.158691 -45.484905 122.312202 881.701050
[R_Hip]
34 5.765438 125.836372 -872.654907 39.766418 51.325043 126.970802 881.699829
35 5.765438 125.836372 -872.654907 38.806469 50.444088 126.268845 881.699829
36 5.765438 125.836372 -872.654907 38.260727 49.957405 125.845650 881.699829
[Rear_Leg01]
34 -192.298416 -925.602966 -0.001907 169.654999 2.388186 -157.078796 945.367432
35 -192.298416 -925.602966 -0.001907 169.701035 2.279801 -158.507339 945.367432
36 -192.298416 -925.602966 -0.001907 169.710083 2.150606 -159.491547 945.367432
[Spine1]
34 290.604584 5.007505 0.000477 7.434725 -0.146781 16.814899 290.647736
35 290.604584 5.007505 0.000477 7.338525 -0.432426 17.888008 290.647736
36 290.604584 5.007505 0.000477 7.281704 -0.571518 18.862888 290.647736
[L_Leg01]
34 761.932007 -0.002384 -0.069261 24.489536 -12.344066 -15.364059 761.932068
35 761.932007 -0.002384 -0.069261 23.798313 -13.856225 -13.145164 761.932068
36 761.932007 -0.002384 -0.069261 23.166712 -15.090717 -10.995303 761.932068
[L_Leg02]
34 1441.140503 -0.000954 -0.000715 3.156304 0.029174 -124.636299 1441.140503
35 1441.140503 -0.000954 -0.000715 2.861773 -0.059909 -125.933769 1441.140503
36 1441.140503 -0.000954 -0.000715 2.569336 -0.155634 -127.230728 1441.140503
[L_Leg03]
34 1686.963989 -0.000715 -0.000954 -0.049307 0.022174 123.564407 1686.963989
35 1686.963989 -0.000715 -0.000954 -0.043043 0.019216 121.051773 1686.963989
36 1686.963989 -0.000715 -0.000954 -0.029846 0.014919 118.904266 1686.963989
[L_Foot]
34 3041.570068 -30.715107 11.297464 2.050174 13.143846 53.589725 3041.746094
35 3041.570068 -30.715107 11.297464 2.100404 13.143251 54.333874 3041.746094
36 3041.570068 -30.715107 11.297464 2.150620 13.142019 55.077999 3041.746094
[L_Toe1_01]
34 -188.216690 -224.732346 -21.137953 93.731827 -6.875675 -172.046860 293.899567
35 -188.216690 -224.732346 -21.137953 93.729271 -6.873043 -172.031570 293.899567
36 -188.216690 -224.732346 -21.137953 93.726730 -6.870409 -172.016296 293.899567
[L_Toe2_01]
34 200.746536 -219.926590 148.838394 -90.033302 -26.325579 -52.649521 332.896027
35 200.746536 -219.926590 148.838394 -90.031441 -26.322805 -52.655136 332.896027
36 200.746536 -219.926590 148.838394 -90.029579 -26.320028 -52.660774 332.896027
[L_Toe3_01]
34 188.832520 -219.859131 -191.078659 -99.788055 13.839008 -67.673027 347.140900
35 188.832520 -219.859131 -191.078659 -99.788055 13.839005 -67.673027 347.140900
36 188.832520 -219.859131 -191.078659 -99.788055 13.839008 -67.673027 347.140900
[planeAlignerLeft]
34 0.812531 -811.448792 -0.314951 0.000000 -90.000000 -90.001900 811.449280
35 0.812531 -811.448792 -0.314951 0.000000 -90.000000 -90.001900 811.449280
36 0.812531 -811.448792 -0.314951 0.000000 -90.000000 -90.001900 811.449280
[L_Toe1_02]
34 413.761139 0.000477 0.000000 0.001384 -25.989861 0.001384 413.761139
35 413.761139 0.000477 0.000000 0.001384 -25.994473 0.001384 413.761139
36 413.761139 0.000477 0.000000 0.001384 -25.999086 0.001384 413.761139
[L_Toe1_03]
34 464.317322 0.000358 -0.000089 0.003733 53.354469 0.003733 464.317322
35 464.317322 0.000358 -0.000089 0.003733 53.355404 0.003733 464.317322
36 464.317322 0.000358 -0.000089 0.003733 53.356335 0.003733 464.317322
[L_Toe2_02]
34 342.235809 -0.000477 0.000238 0.001188 -72.402016 0.001188 342.235809
35 342.235809 -0.000477 0.000238 0.001188 -72.402016 0.001188 342.235809
36 342.235809 -0.000477 0.000238 0.001188 -72.402016 0.001188 342.235809
[L_Toe2_03]
34 420.210846 -0.000715 0.000000 0.029090 85.375511 0.029090 420.210846
35 420.210846 -0.000715 0.000000 0.029090 85.375511 0.029090 420.210846
36 420.210846 -0.000715 0.000000 0.029090 85.375511 0.029090 420.210846
[L_Toe3_02]
34 329.270111 0.000954 0.000000 0.001178 -80.461830 0.001178 329.270111
35 329.270111 0.000954 0.000000 0.001178 -80.465500 0.001178 329.270111
36 329.270111 0.000954 0.000000 0.001178 -80.469208 0.001178 329.270111
[L_Toe3_03]
34 439.137451 -0.001907 0.000954 -179.995956 78.605698 -179.992447 439.137451
35 439.137451 -0.001907 0.000954 -179.995956 78.605698 -179.992447 439.137451
36 439.137451 -0.001907 0.000954 -179.995956 78.605698 -179.992447 439.137451
[planeLockWeightLeft]
34 -0.000954 0.000238 -0.000305 -0.011826 -0.004376 0.005620 0.001029
35 -0.000954 0.000238 -0.000305 -0.011826 -0.004376 0.005620 0.001029
36 -0.000954 0.000238 -0.000305 -0.011826 -0.004376 0.005620 0.001029
[R_Leg01]
34 761.455627 -0.001907 -0.000358 119.015785 -1.462446 40.147785 761.455688
35 761.455627 -0.001907 -0.000358 119.572678 -3.307093 38.641705 761.455688
36 761.455627 -0.001907 -0.000358 119.863869 -4.994645 37.553452 761.455688
[R_Leg02]
34 1441.140625 0.000000 -0.000238 -0.902242 -0.047160 -101.899323 1441.140625
35 1441.140625 0.000000 -0.000238 -1.030842 -0.108641 -107.960930 1441.140625
36 1441.140625 0.000000 -0.000238 -1.135415 -0.135904 -112.535889 1441.140625
[R_Leg03]
34 1686.963989 0.000954 0.001431 0.069827 -0.040073 129.692719 1686.963989
35 1686.963989 0.000954 0.001431 0.073976 -0.038603 130.668777 1686.963989
36 1686.963989 0.000954 0.001431 0.075853 -0.043424 131.163544 1686.963989
[R_Foot]
34 3041.560059 -30.531288 -11.204481 0.837768 -24.769558 48.770008 3041.734131
35 3041.560059 -30.531288 -11.204481 0.263125 -24.768213 51.158409 3041.734131
36 3041.560059 -30.531288 -11.204481 -0.213652 -24.742130 52.978985 3041.734131
[planeAlignerRight]
34 -0.635147 -812.270569 -0.364304 0.000000 -89.960434 -90.005180 812.270874
35 -0.635147 -812.270569 -0.364304 0.000000 -89.960434 -90.005180 812.270874
36 -0.635147 -812.270569 -0.364304 0.000000 -89.960434 -90.005180 812.270874
[R_Toe1_01]
34 -188.383347 -224.864899 21.052242 77.224747 0.350217 -173.446869 294.101532
35 -188.383347 -224.864899 21.052242 76.959312 -0.058183 -173.328796 294.101532
36 -188.383347 -224.864899 21.052242 76.809639 -0.319398 -172.948349 294.101532
[R_Toe2_01]
34 200.637817 -220.002121 -148.787384 -90.661156 37.551140 -53.764095 332.857574
35 200.637817 -220.002121 -148.787384 -91.465881 35.114429 -56.868732 332.857574
36 200.637817 -220.002121 -148.787384 -91.725754 33.475471 -58.630508 332.857574
[R_Toe3_01]
34 188.606735 -220.092957 191.126343 -74.441978 -11.268526 -67.678368 347.192566
35 188.606735 -220.092957 191.126343 -73.747963 -9.762437 -71.017853 347.192566
36 188.606735 -220.092957 191.126343 -73.359116 -8.797039 -73.063576 347.192566
[planeLockWeightRight]
34 -0.000477 0.000000 0.000000 -0.011823 -0.004379 -0.000027 0.000477
35 -0.000477 0.000000 0.000000 -0.011823 -0.004379 -0.000027 0.000477
36 -0.000477 0.000000 0.000000 -0.011823 -0.004379 -0.000027 0.000477
[R_Toe1_02]
34 413.762085 0.000477 -0.000119 0.001385 -25.906343 0.001385 413.762085
35 413.762085 0.000477 -0.000119 0.001389 -25.391775 0.001389 413.762085
36 413.762085 0.000477 -0.000119 0.001392 -24.877203 0.001392 413.762085
[R_Toe1_03]
34 464.317810 0.000000 0.001088 0.004126 56.952587 0.004126 464.317810
35 464.317810 0.000000 0.001088 0.005207 63.948158 0.005207 464.317810
36 464.317810 0.000000 0.001088 0.006189 68.136292 0.006189 464.317810
[R_Toe2_02]
34 342.234741 -0.000954 0.000238 -0.002343 -74.991600 -0.002343 342.234741
35 342.234741 -0.000954 0.000238 -0.000582 -71.825020 -0.000582 342.234741
36 342.234741 -0.000954 0.000238 0.001194 -68.658440 0.001194 342.234741
[R_Toe2_03]
34 420.210846 0.000715 -0.000268 -179.977020 86.898773 -179.980515 420.210846
35 420.210846 0.000715 -0.000268 0.022241 83.950455 0.022241 420.210846
36 420.210846 0.000715 -0.000268 0.010074 76.619202 0.010074 420.210846
[R_Toe3_02]
34 329.270355 -0.000477 -0.000954 0.001177 -81.481819 0.001177 329.270355
35 329.270355 -0.000477 -0.000954 0.001180 -78.658646 0.001180 329.270355
36 329.270355 -0.000477 -0.000954 0.001183 -75.835541 0.001183 329.270355
[R_Toe3_03]
34 439.137939 0.000238 0.001431 -179.997574 74.199188 -179.994019 439.137939
35 439.137939 0.000238 0.001431 -179.988739 84.939102 -179.985245 439.137939
36 439.137939 0.000238 0.001431 -0.021677 86.694412 -0.018179 439.137939
[Rear_Leg02]
34 1162.777710 -0.029802 0.005960 0.541907 -3.092852 -117.663887 1162.777710
35 1162.777710 -0.029802 0.005960 0.554478 -3.018528 -119.964241 1162.777710
36 1162.777710 -0.029802 0.005960 0.570884 -2.956616 -121.847778 1162.777710
[Rear_Leg03]
34 607.192505 -0.013351 -0.073195 0.006487 -0.002073 63.651031 607.192505
35 607.192505 -0.013351 -0.073195 0.006484 -0.002083 63.824909 607.192505
36 607.192505 -0.013351 -0.073195 0.006481 -0.002092 63.998779 607.192505
[Rear_Leg04]
34 995.874512 -0.020504 -0.011921 -0.040346 -0.015610 56.969429 995.874573
35 995.874512 -0.020504 -0.011921 -0.040385 -0.015511 57.249458 995.874573
36 995.874512 -0.020504 -0.011921 -0.040422 -0.015413 57.529488 995.874573
[Rear_Foot]
34 3096.176270 -0.067472 -0.041425 -141.635071 85.744026 51.061348 3096.176270
35 3096.176270 -0.067472 -0.041425 -142.023163 85.759933 50.678654 3096.176270
36 3096.176270 -0.067472 -0.041425 -142.414001 85.775528 50.292866 3096.176270
[planeAlignerCenter]
34 0.350077 0.966311 -838.790894 0.000009 0.000003 -179.999985 838.791565
35 0.350077 0.966311 -838.790894 0.000009 0.000003 -179.999985 838.791565
36 0.350077 0.966311 -838.790894 0.000009 0.000003 -179.999985 838.791565
[Rear_Toe1_01]
34 0.653352 83.966492 -371.173737 0.293575 41.914112 90.415276 380.553192
35 0.653352 83.966492 -371.173737 0.292478 41.914116 90.414848 380.553192
36 0.653352 83.966492 -371.173737 0.291381 41.914120 90.414429 380.553192
[Rear_Toe2_01]
34 178.200760 -294.826019 -362.060547 -7.196267 34.406261 -66.271294 499.765686
35 178.200760 -294.826019 -362.060547 -7.196267 34.406261 -66.271294 499.765686
36 178.200760 -294.826019 -362.060547 -7.196267 34.406261 -66.271294 499.765686
[Rear_Toe3_01]
34 -153.359680 -308.780914 -362.060852 3.289418 33.518005 -112.540970 499.952881
35 -153.359680 -308.780914 -362.060852 3.289418 33.518005 -112.540970 499.952881
36 -153.359680 -308.780914 -362.060852 3.289418 33.518005 -112.540970 499.952881
[planeLockWeightCenter]
34 -0.000062 0.000238 0.000000 -0.011814 -0.004373 -0.000015 0.000246
35 -0.000062 0.000238 0.000000 -0.011814 -0.004373 -0.000015 0.000246
36 -0.000062 0.000238 0.000000 -0.011814 -0.004373 -0.000015 0.000246
[Rear_Toe1_02]
34 379.707825 0.194073 0.000477 -0.000242 -31.676744 0.006934 379.707855
35 379.707825 0.194073 0.000477 -0.000242 -31.676744 0.006934 379.707855
36 379.707825 0.194073 0.000477 -0.000242 -31.676744 0.006934 379.707855
[Rear_Toe1_03]
34 500.129700 0.165701 0.000119 -0.000103 51.902485 0.007295 500.129761
35 500.129700 0.165701 0.000119 -0.000103 51.902481 0.007295 500.129761
36 500.129700 0.165701 0.000119 -0.000103 51.902485 0.007295 500.129761
[Rear_Toe2_02]
34 340.494507 0.000238 -0.000954 0.001192 -69.854523 0.001192 340.494507
35 340.494507 0.000238 -0.000954 0.001192 -69.854523 0.001192 340.494507
36 340.494507 0.000238 -0.000954 0.001192 -69.854523 0.001192 340.494507
[Rear_Toe2_03]
34 433.103577 0.000000 0.000238 0.006696 69.810341 0.006696 433.103546
35 433.103577 0.000000 0.000238 0.006696 69.810326 0.006696 433.103546
36 433.103577 0.000000 0.000238 0.006696 69.810341 0.006696 433.103546
[Rear_Toe3_02]
34 340.494141 -0.000358 -0.000477 0.008288 -67.274704 -0.009460 340.494171
35 340.494141 -0.000358 -0.000477 0.008288 -67.274704 -0.009460 340.494171
36 340.494141 -0.000358 -0.000477 0.008288 -67.274704 -0.009460 340.494171
[Rear_Toe3_03]
34 433.103577 0.001431 -0.000238 -0.000972 65.958984 -0.004547 433.103546
35 433.103577 0.001431 -0.000238 -0.000972 65.958984 -0.004547 433.103546
36 433.103577 0.001431 -0.000238 -0.000972 65.958984 -0.004547 433.103546
[Back_Bone]
34 1312.175781 -701.934692 0.000954 1.205556 1.406594 -87.360603 1488.125488
35 1312.175781 -701.934692 0.000954 1.327982 1.036373 -86.944366 1488.125488
36 1312.175781 -701.934692 0.000954 1.447699 0.665287 -86.529007 1488.125488
[Head]
34 1406.159424 809.709290 0.001431 -0.409951 0.145148 10.234202 1622.625488
35 1406.159424 809.709290 0.001431 -0.207619 -0.558443 8.333694 1622.625488
36 1406.159424 809.709290 0.001431 -0.036313 -1.205108 6.900871 1622.625488
[Motor_Bone]
34 1158.364380 -417.834747 0.000477 -0.000105 0.000046 -105.985291 1231.419434
35 1158.364380 -417.834747 0.000477 -0.000105 0.000046 -105.985291 1231.419434
36 1158.364380 -417.834747 0.000477 -0.000105 0.000046 -105.985291 1231.419434
[Ping_Mechanism]
34 1238.827881 -442.150848 -1.333146 0.000103 -0.000053 82.120995 1315.368286
35 1236.726318 -441.902771 -0.766788 0.000103 -0.000053 82.120995 1313.305176
36 1234.624878 -441.654663 -0.200439 0.000103 -0.000053 82.120995 1311.242676
[BN_LookIK]
34 193.241119 1380.371704 -0.002861 0.000000 89.965736 -31.038179 1393.832153
35 193.241119 1380.371704 -0.002861 0.000000 89.965736 -31.038179 1393.832153
36 193.241119 1380.371704 -0.002861 0.000000 89.965736 -31.038179 1393.832153
[bottomMouth]
34 -435.092926 615.759399 -0.000954 -0.000022 0.000016 73.527184 753.966492
35 -435.092926 615.759399 -0.000954 -0.000022 0.000016 73.527184 753.966492
36 -435.092926 615.759399 -0.000954 -0.000022 0.000016 73.527184 753.966492
[L_Mouth01]
34 554.440979 7.658243 838.222046 150.204178 23.759130 109.605339 1005.027161
35 554.440979 7.658243 838.222046 150.204178 23.759130 109.605339 1005.027161
36 554.440979 7.658243 838.222046 150.204178 23.759130 109.605339 1005.027161
[L_mouthFront]
34 551.629089 934.514771 339.150421 0.000081 2.804060 79.119301 1136.941284
35 551.629089 934.514771 339.150421 0.000081 2.804060 79.119301 1136.941284
36 551.629089 934.514771 339.150421 0.000081 2.804060 79.119301 1136.941284
[mouthGun]
34 55.332661 1627.420898 0.000000 0.000023 0.000009 -11.038128 1628.361328
35 55.332661 1627.420898 0.000000 0.000023 0.000009 -11.038128 1628.361328
36 55.332661 1627.420898 0.000000 0.000023 0.000009 -11.038128 1628.361328
[R_Mouth01]
34 554.442383 7.659197 -838.223938 29.795891 -23.759109 109.605331 1005.029541
35 554.442383 7.659197 -838.223938 29.795891 -23.759109 109.605331 1005.029541
36 554.442383 7.659197 -838.223938 29.795891 -23.759109 109.605331 1005.029541
[R_mouthFront]
34 551.629089 934.514282 -339.151367 0.000029 -2.803930 79.119133 1136.941162
35 551.629089 934.514282 -339.151367 0.000029 -2.803930 79.119133 1136.941162
36 551.629089 934.514282 -339.151367 0.000029 -2.803930 79.119133 1136.941162
[TopMouth]
34 461.269867 -56.106091 -0.008583 -0.000059 -0.000268 92.025169 464.669525
35 461.269867 -56.106091 -0.008583 -0.000059 -0.000268 92.025169 464.669525
36 461.269867 -56.106091 -0.008583 -0.000059 -0.000268 92.025169 464.669525
[weapon_bone]
34 -987.239868 1448.372803 0.001431 0.000000 89.965736 -31.038221 1752.833740
35 -987.239868 1448.372803 0.001431 0.000000 89.965736 -31.038221 1752.833740
36 -987.239868 1448.372803 0.001431 0.000000 89.965736 -31.038221 1752.833740
